<svg xmlns="http://www.w3.org/2000/svg" viewBox="0 0 400 1600" preserveAspectRatio="xMidYMin slice">
  <defs>
    <linearGradient id="g1" x1="0" x2="0" y1="0" y2="1">
      <stop offset="0%" stop-color="#7fbf87" stop-opacity="0.55"/>
      <stop offset="40%" stop-color="#5ca26b" stop-opacity="0.40"/>
      <stop offset="75%" stop-color="#3d7e50" stop-opacity="0.24"/>
      <stop offset="100%" stop-color="#2c5f3c" stop-opacity="0.10"/>
    </linearGradient>
    <filter id="paper" x="-20%" y="-20%" width="140%" height="140%">
      <feTurbulence type="fractalNoise" baseFrequency="0.9" numOctaves="2" seed="3"/>
      <feColorMatrix type="saturate" values="0.25"/>
      <feBlend mode="multiply"/>
      <feGaussianBlur stdDeviation="0.5"/>
    </filter>
  </defs>
  <rect width="400" height="1600" fill="url(#g1)" filter="url(#paper)"/>
  <!-- listové siluety -->
  <g fill="#2f6b3f" fill-opacity="0.18">
    <path d="M60,40 C30,90 40,140 85,180 C120,210 150,250 140,300 C120,360 80,400 60,460" />
    <path d="M30,220 C10,280 40,330 95,360 C150,395 165,450 130,500" />
    <path d="M5,360 C0,420 35,470 95,510 C140,540 150,580 115,620" />
    <path d="M20,520 C10,560 45,600 100,640 C145,670 150,720 120,760" />
  </g>
</svg>
