<svg xmlns="http://www.w3.org/2000/svg" viewBox="0 0 400 1600" preserveAspectRatio="xMidYMax slice">
  <defs>
    <linearGradient id="g2" x1="0" x2="0" y1="1" y2="0">
      <stop offset="0%" stop-color="#7fbf87" stop-opacity="0.55"/>
      <stop offset="40%" stop-color="#5ca26b" stop-opacity="0.40"/>
      <stop offset="75%" stop-color="#3d7e50" stop-opacity="0.24"/>
      <stop offset="100%" stop-color="#2c5f3c" stop-opacity="0.10"/>
    </linearGradient>
    <filter id="paper2" x="-20%" y="-20%" width="140%" height="140%">
      <feTurbulence type="fractalNoise" baseFrequency="0.9" numOctaves="2" seed="7"/>
      <feColorMatrix type="saturate" values="0.25"/>
      <feBlend mode="multiply"/>
      <feGaussianBlur stdDeviation="0.5"/>
    </filter>
  </defs>
  <rect width="400" height="1600" fill="url(#g2)" filter="url(#paper2)"/>
  <!-- listové siluety -->
  <g fill="#2f6b3f" fill-opacity="0.18">
    <path d="M340,1560 C370,1510 360,1460 315,1420 C280,1390 250,1350 260,1300 C280,1240 320,1200 340,1140" />
    <path d="M370,1380 C390,1320 360,1270 305,1240 C250,1205 235,1150 270,1100" />
    <path d="M395,1240 C400,1180 365,1130 305,1090 C260,1060 250,1020 285,980" />
    <path d="M380,1080 C390,1040 355,1000 300,960 C255,930 250,880 280,840" />
  </g>
</svg>
